<svg width="297mm" height="420mm" version="1.1" xmlns="http://www.w3.org/2000/svg">
   <rect x="10mm" y="10mm" width="277mm" height="400mm" stroke="black" fill="transparent" stroke-width="0.1"/>
   <rect x="30mm" y="150mm" width="237mm" height="32mm" stroke="black" fill="transparent" stroke-width="0.2"/>
   <!--<rect x="30mm" y="182mm" width="237mm" height="0mm" stroke="black" fill="transparent" stroke-width="0.2"/-->
            <!-- fuehrende raketenwissenschafter haben unter leitung von professoren der teilschenbeschleunigung
                 definiert das kein mm-Angaben in den Paths funktionieren, sondern schwurbelige einheitsfreie 
                 Angaben, die in SVG und PDF-Export in anderen dimensionen definiert sind.
                 Ja, ok, es gibt bestimmt eine "Ne, ist doch klar"-Erklaerung: Bitte melden!!!
                 -->
  <path d="M 114,510 q -3,-48 16,-56" stroke="black" fill="none" stroke-width="0.1" stroke-linecap="round"/> <path d="M 135,510 q -6,-45 14,-58" stroke="black" fill="none" stroke-width="0.1" stroke-linecap="round"/> <path d="M 158,510 q -1,-47 19,-51" stroke="black" fill="none" stroke-width="0.1" stroke-linecap="round"/> <path d="M 178,510 q -9,-41 12,-56" stroke="black" fill="none" stroke-width="0.1" stroke-linecap="round"/> <path d="M 191,510 q -7,-50 12,-52" stroke="black" fill="none" stroke-width="0.1" stroke-linecap="round"/> <path d="M 219,510 q -3,-42 11,-52" stroke="black" fill="none" stroke-width="0.1" stroke-linecap="round"/> <path d="M 238,510 q -7,-48 16,-54" stroke="black" fill="none" stroke-width="0.1" stroke-linecap="round"/> <path d="M 259,510 q -8,-50 15,-60" stroke="black" fill="none" stroke-width="0.1" stroke-linecap="round"/> <path d="M 275,510 q -8,-48 15,-57" stroke="black" fill="none" stroke-width="0.1" stroke-linecap="round"/> <path d="M 299,510 q -10,-44 12,-55" stroke="black" fill="none" stroke-width="0.1" stroke-linecap="round"/> <path d="M 319,510 q -7,-47 17,-56" stroke="black" fill="none" stroke-width="0.1" stroke-linecap="round"/> <path d="M 334,510 q -1,-42 18,-51" stroke="black" fill="none" stroke-width="0.1" stroke-linecap="round"/> <path d="M 358,510 q -3,-47 12,-59" stroke="black" fill="none" stroke-width="0.1" stroke-linecap="round"/> <path d="M 379,510 q -7,-43 12,-54" stroke="black" fill="none" stroke-width="0.1" stroke-linecap="round"/> <path d="M 392,510 q -10,-49 10,-60" stroke="black" fill="none" stroke-width="0.1" stroke-linecap="round"/> <path d="M 418,510 q -10,-41 17,-53" stroke="black" fill="none" stroke-width="0.1" stroke-linecap="round"/> <path d="M 430,510 q -3,-46 14,-56" stroke="black" fill="none" stroke-width="0.1" stroke-linecap="round"/> <path d="M 456,510 q -3,-49 11,-56" stroke="black" fill="none" stroke-width="0.1" stroke-linecap="round"/> <path d="M 476,510 q -4,-47 13,-52" stroke="black" fill="none" stroke-width="0.1" stroke-linecap="round"/> <path d="M 492,510 q -9,-46 13,-59" stroke="black" fill="none" stroke-width="0.1" stroke-linecap="round"/> <path d="M 515,510 q -6,-68 13,-75" stroke="black" fill="none" stroke-width="0.1" stroke-linecap="round"/> <path d="M 535,510 q -8,-49 11,-57" stroke="black" fill="none" stroke-width="0.1" stroke-linecap="round"/> <path d="M 554,510 q -7,-49 10,-55" stroke="black" fill="none" stroke-width="0.1" stroke-linecap="round"/> <path d="M 579,510 q -4,-47 15,-51" stroke="black" fill="none" stroke-width="0.1" stroke-linecap="round"/> <path d="M 591,510 q -3,-43 15,-56" stroke="black" fill="none" stroke-width="0.1" stroke-linecap="round"/> <path d="M 615,510 q -2,-50 18,-59" stroke="black" fill="none" stroke-width="0.1" stroke-linecap="round"/> <path d="M 632,510 q -8,-50 10,-57" stroke="black" fill="none" stroke-width="0.1" stroke-linecap="round"/> <path d="M 653,510 q -4,-46 12,-59" stroke="black" fill="none" stroke-width="0.1" stroke-linecap="round"/> <path d="M 676,510 q -2,-42 10,-51" stroke="black" fill="none" stroke-width="0.1" stroke-linecap="round"/> <path d="M 693,510 q -9,-47 12,-55" stroke="black" fill="none" stroke-width="0.1" stroke-linecap="round"/> <path d="M 713,510 q -5,-47 14,-55" stroke="black" fill="none" stroke-width="0.1" stroke-linecap="round"/> <path d="M 736,510 q -5,-50 17,-57" stroke="black" fill="none" stroke-width="0.1" stroke-linecap="round"/>
  <text x="267mm" y="188mm" text-anchor="end" font-family="Courier New, monospace" font-size="6">
    outstanding | one group/one special | seed 1 | L.Art N19 - culms v0.1 | (c) 2024 - L.A.N19
    </text>
</svg>
    