<svg width="297mm" height="420mm" version="1.1" xmlns="http://www.w3.org/2000/svg">
   <rect x="10mm" y="10mm" width="277mm" height="400mm" stroke="black" fill="transparent" stroke-width="0.1"/>
   <rect x="30mm" y="150mm" width="237mm" height="32mm" stroke="black" fill="transparent" stroke-width="0.2"/>
   <!--<rect x="30mm" y="182mm" width="237mm" height="0mm" stroke="black" fill="transparent" stroke-width="0.2"/-->
            <!-- fuehrende raketenwissenschafter haben unter leitung von professoren der teilschenbeschleunigung
                 definiert das kein mm-Angaben in den Paths funktionieren, sondern schwurbelige einheitsfreie 
                 Angaben, die in SVG und PDF-Export in anderen dimensionen definiert sind.
                 Ja, ok, es gibt bestimmt eine "Ne, ist doch klar"-Erklaerung: Bitte melden!!!
                 -->
  <path d="M 117,510 q -10,-41 12,-60" stroke="black" fill="none" stroke-width="0.1" stroke-linecap="round"/> <path d="M 137,510 q -1,-44 10,-57" stroke="black" fill="none" stroke-width="0.1" stroke-linecap="round"/> <path d="M 151,510 q -4,-42 18,-60" stroke="black" fill="none" stroke-width="0.1" stroke-linecap="round"/> <path d="M 179,510 q -6,-50 10,-57" stroke="black" fill="none" stroke-width="0.1" stroke-linecap="round"/> <path d="M 198,510 q -4,-46 15,-60" stroke="black" fill="none" stroke-width="0.1" stroke-linecap="round"/> <path d="M 213,510 q -1,-44 13,-53" stroke="black" fill="none" stroke-width="0.1" stroke-linecap="round"/> <path d="M 238,510 q -10,-48 18,-51" stroke="black" fill="none" stroke-width="0.1" stroke-linecap="round"/> <path d="M 254,510 q -10,-49 16,-59" stroke="black" fill="none" stroke-width="0.1" stroke-linecap="round"/> <path d="M 270,510 q -3,-41 17,-58" stroke="black" fill="none" stroke-width="0.1" stroke-linecap="round"/> <path d="M 291,510 q -3,-46 12,-60" stroke="black" fill="none" stroke-width="0.1" stroke-linecap="round"/> <path d="M 311,510 q -2,-43 11,-58" stroke="black" fill="none" stroke-width="0.1" stroke-linecap="round"/> <path d="M 335,510 q -3,-42 12,-53" stroke="black" fill="none" stroke-width="0.1" stroke-linecap="round"/> <path d="M 355,510 q -6,-46 17,-58" stroke="black" fill="none" stroke-width="0.1" stroke-linecap="round"/> <path d="M 374,510 q -2,-50 12,-57" stroke="black" fill="none" stroke-width="0.1" stroke-linecap="round"/> <path d="M 391,510 q -4,-49 11,-56" stroke="black" fill="none" stroke-width="0.1" stroke-linecap="round"/> <path d="M 411,510 q -6,-47 12,-55" stroke="black" fill="none" stroke-width="0.1" stroke-linecap="round"/> <path d="M 431,510 q -3,-49 15,-52" stroke="black" fill="none" stroke-width="0.1" stroke-linecap="round"/> <path d="M 458,510 q -9,-43 19,-54" stroke="black" fill="none" stroke-width="0.1" stroke-linecap="round"/> <path d="M 471,510 q -2,-41 11,-53" stroke="black" fill="none" stroke-width="0.1" stroke-linecap="round"/> <path d="M 499,510 q -3,-46 16,-53" stroke="black" fill="none" stroke-width="0.1" stroke-linecap="round"/> <path d="M 517,510 q -4,-44 11,-54" stroke="black" fill="none" stroke-width="0.2" stroke-linecap="round"/> <path d="M 535,510 q -10,-49 12,-53" stroke="black" fill="none" stroke-width="0.1" stroke-linecap="round"/> <path d="M 556,510 q -10,-49 16,-52" stroke="black" fill="none" stroke-width="0.1" stroke-linecap="round"/> <path d="M 579,510 q -5,-50 10,-52" stroke="black" fill="none" stroke-width="0.1" stroke-linecap="round"/> <path d="M 590,510 q -3,-42 12,-53" stroke="black" fill="none" stroke-width="0.1" stroke-linecap="round"/> <path d="M 614,510 q -4,-49 18,-51" stroke="black" fill="none" stroke-width="0.1" stroke-linecap="round"/> <path d="M 633,510 q -4,-45 17,-54" stroke="black" fill="none" stroke-width="0.1" stroke-linecap="round"/> <path d="M 656,510 q -10,-41 18,-52" stroke="black" fill="none" stroke-width="0.1" stroke-linecap="round"/> <path d="M 671,510 q -8,-44 18,-58" stroke="black" fill="none" stroke-width="0.1" stroke-linecap="round"/> <path d="M 694,510 q -7,-43 12,-55" stroke="black" fill="none" stroke-width="0.1" stroke-linecap="round"/> <path d="M 718,510 q -9,-48 19,-53" stroke="black" fill="none" stroke-width="0.1" stroke-linecap="round"/> <path d="M 730,510 q -6,-50 18,-59" stroke="black" fill="none" stroke-width="0.1" stroke-linecap="round"/>
  <text x="267mm" y="188mm" text-anchor="end" font-family="Courier New, monospace" font-size="6">
    differ | one group/one special | seed 1 | L.Art N19 - culms v0.1 | (c) 2024 - L.A.N19
    </text>
</svg>
    