<svg width="297mm" height="420mm" version="1.1" xmlns="http://www.w3.org/2000/svg">
   <rect x="10mm" y="10mm" width="277mm" height="400mm" stroke="black" fill="transparent" stroke-width="0.1"/>
   <rect x="30mm" y="150mm" width="237mm" height="32mm" stroke="black" fill="transparent" stroke-width="0.2"/>
   <!--<rect x="30mm" y="182mm" width="237mm" height="0mm" stroke="black" fill="transparent" stroke-width="0.2"/-->
            <!-- fuehrende raketenwissenschafter haben unter leitung von professoren der teilschenbeschleunigung
                 definiert das kein mm-Angaben in den Paths funktionieren, sondern schwurbelige einheitsfreie 
                 Angaben, die in SVG und PDF-Export in anderen dimensionen definiert sind.
                 Ja, ok, es gibt bestimmt eine "Ne, ist doch klar"-Erklaerung: Bitte melden!!!
                 -->
  <path d="M 111.0,510 q -3,-46 7,-60" stroke="black" fill="none" stroke-width="0.1" stroke-linecap="round"/><path d="M 139.5,510 q -5,-43 1,-57" stroke="black" fill="none" stroke-width="0.1" stroke-linecap="round"/><path d="M 176.0,510 q -8,-50 8,-59" stroke="black" fill="none" stroke-width="0.1" stroke-linecap="round"/><path d="M 198.5,510 q -10,-46 12,-55" stroke="black" fill="none" stroke-width="0.1" stroke-linecap="round"/><path d="M 223.0,510 q -9,-46 8,-58" stroke="black" fill="none" stroke-width="0.1" stroke-linecap="round"/><path d="M 250.5,510 q -2,-41 7,-53" stroke="black" fill="none" stroke-width="0.1" stroke-linecap="round"/><path d="M 272.0,510 q -4,-43 6,-60" stroke="black" fill="none" stroke-width="0.1" stroke-linecap="round"/><path d="M 300.5,510 q -4,-46 14,-60" stroke="black" fill="none" stroke-width="0.1" stroke-linecap="round"/><path d="M 325.0,510 q -5,-44 8,-58" stroke="black" fill="none" stroke-width="0.1" stroke-linecap="round"/><path d="M 343.5,510 q -5,-47 10,-58" stroke="black" fill="none" stroke-width="0.1" stroke-linecap="round"/><path d="M 369.0,510 q -5,-44 18,-52" stroke="black" fill="none" stroke-width="0.1" stroke-linecap="round"/><path d="M 388.5,510 q -6,-42 16,-55" stroke="black" fill="none" stroke-width="0.1" stroke-linecap="round"/><path d="M 405.0,510 q -8,-41 15,-54" stroke="black" fill="none" stroke-width="0.1" stroke-linecap="round"/><path d="M 418.5,510 q -9,-49 15,-60" stroke="black" fill="none" stroke-width="0.1" stroke-linecap="round"/><path d="M 432.0,510 q -9,-43 22,-51" stroke="black" fill="none" stroke-width="0.1" stroke-linecap="round"/><path d="M 448.5,510 q -8,-45 23,-52" stroke="black" fill="none" stroke-width="0.1" stroke-linecap="round"/><path d="M 464.0,510 q -8,-44 17,-53" stroke="black" fill="none" stroke-width="0.1" stroke-linecap="round"/><path d="M 476.5,510 q -10,-43 22,-54" stroke="black" fill="none" stroke-width="0.1" stroke-linecap="round"/><path d="M 490.0,510 q -1,-45 20,-51" stroke="black" fill="none" stroke-width="0.1" stroke-linecap="round"/><path d="M 502.5,510 q -4,-45 22,-52" stroke="black" fill="none" stroke-width="0.1" stroke-linecap="round"/><path d="M 518.0,510 q -9,-46 27,-57" stroke="black" fill="none" stroke-width="0.1" stroke-linecap="round"/><path d="M 528.5,510 q -3,-48 25,-60" stroke="black" fill="none" stroke-width="0.1" stroke-linecap="round"/><path d="M 530.0,510 q -7,-43 30,-57" stroke="black" fill="none" stroke-width="0.1" stroke-linecap="round"/><path d="M 535.5,510 q -4,-45 30,-52" stroke="black" fill="none" stroke-width="0.1" stroke-linecap="round"/><path d="M 548.0,510 q -7,-47 25,-60" stroke="black" fill="none" stroke-width="0.1" stroke-linecap="round"/><path d="M 549.5,510 q -3,-41 28,-53" stroke="black" fill="none" stroke-width="0.1" stroke-linecap="round"/><path d="M 556.0,510 q -4,-49 34,-59" stroke="black" fill="none" stroke-width="0.1" stroke-linecap="round"/><path d="M 556.5,510 q -5,-48 30,-54" stroke="black" fill="none" stroke-width="0.1" stroke-linecap="round"/><path d="M 562.0,510 q -4,-46 36,-57" stroke="black" fill="none" stroke-width="0.1" stroke-linecap="round"/><path d="M 565.5,510 q -4,-50 29,-57" stroke="black" fill="none" stroke-width="0.1" stroke-linecap="round"/><path d="M 565.0,510 q -4,-45 36,-56" stroke="black" fill="none" stroke-width="0.1" stroke-linecap="round"/><path d="M 566.5,510 q -4,-48 53,-54" stroke="black" fill="none" stroke-width="0.2" stroke-linecap="round"/>
  <text x="267mm" y="188mm" text-anchor="end" font-family="Courier New, monospace" font-size="6">
    lead | one group/one special | seed 1 | L.Art N19 - culms v0.1 | (c) 2024 - L.A.N19
    </text>
</svg>
    