<svg width="297mm" height="420mm" version="1.1" xmlns="http://www.w3.org/2000/svg">
   <rect x="10mm" y="10mm" width="277mm" height="400mm" stroke="black" fill="transparent" stroke-width="0.1"/>
   <rect x="30mm" y="150mm" width="237mm" height="32mm" stroke="black" fill="transparent" stroke-width="0.2"/>
   <!--<rect x="30mm" y="182mm" width="237mm" height="0mm" stroke="black" fill="transparent" stroke-width="0.2"/-->
            <!-- fuehrende raketenwissenschafter haben unter leitung von professoren der teilschenbeschleunigung
                 definiert das kein mm-Angaben in den Paths funktionieren, sondern schwurbelige einheitsfreie 
                 Angaben, die in SVG und PDF-Export in anderen dimensionen definiert sind.
                 Ja, ok, es gibt bestimmt eine "Ne, ist doch klar"-Erklaerung: Bitte melden!!!
                 -->
  <path d="M 115,510 q -6,-49 15,-54" stroke="black" fill="none" stroke-width="0.1" stroke-linecap="round"/><path d="M 131,510 q -8,-42 18,-53" stroke="black" fill="none" stroke-width="0.1" stroke-linecap="round"/><path d="M 158,510 q -9,-43 15,-51" stroke="black" fill="none" stroke-width="0.1" stroke-linecap="round"/><path d="M 171,510 q -5,-49 11,-52" stroke="black" fill="none" stroke-width="0.1" stroke-linecap="round"/><path d="M 193,510 q -3,-47 17,-55" stroke="black" fill="none" stroke-width="0.1" stroke-linecap="round"/><path d="M 210,510 q -8,-50 10,-54" stroke="black" fill="none" stroke-width="0.1" stroke-linecap="round"/><path d="M 235,510 q -6,-42 19,-57" stroke="black" fill="none" stroke-width="0.1" stroke-linecap="round"/><path d="M 255,510 q -8,-49 13,-60" stroke="black" fill="none" stroke-width="0.1" stroke-linecap="round"/><path d="M 272,510 q -5,-44 14,-57" stroke="black" fill="none" stroke-width="0.1" stroke-linecap="round"/><path d="M 292,510 q -7,-44 18,-58" stroke="black" fill="none" stroke-width="0.1" stroke-linecap="round"/><path d="M 312,510 q -7,-43 12,-51" stroke="black" fill="none" stroke-width="0.1" stroke-linecap="round"/><path d="M 339,510 q -1,-46 19,-55" stroke="black" fill="none" stroke-width="0.1" stroke-linecap="round"/><path d="M 352,510 q -5,-42 19,-51" stroke="black" fill="none" stroke-width="0.1" stroke-linecap="round"/><path d="M 374,510 q -7,-47 12,-56" stroke="black" fill="none" stroke-width="0.1" stroke-linecap="round"/><path d="M 390,510 q -8,-48 10,-54" stroke="black" fill="none" stroke-width="0.1" stroke-linecap="round"/><path d="M 410,510 q -5,-43 12,-54" stroke="black" fill="none" stroke-width="0.1" stroke-linecap="round"/><path d="M 433,510 q -8,-42 15,-58" stroke="black" fill="none" stroke-width="0.1" stroke-linecap="round"/><path d="M 451,510 q -6,-45 15,-60" stroke="black" fill="none" stroke-width="0.1" stroke-linecap="round"/><path d="M 478,510 q -6,-48 19,-53" stroke="black" fill="none" stroke-width="0.1" stroke-linecap="round"/><path d="M 490,510 q -3,-44 19,-59" stroke="black" fill="none" stroke-width="0.1" stroke-linecap="round"/><path d="M 510,510 q 10,-50 -10,-60" stroke="black" fill="none" stroke-width="0.1" stroke-linecap="round"/><path d="M 533,510 q -5,-47 17,-60" stroke="black" fill="none" stroke-width="0.1" stroke-linecap="round"/><path d="M 550,510 q -7,-46 13,-52" stroke="black" fill="none" stroke-width="0.1" stroke-linecap="round"/><path d="M 572,510 q -7,-41 13,-55" stroke="black" fill="none" stroke-width="0.1" stroke-linecap="round"/><path d="M 598,510 q -7,-48 19,-59" stroke="black" fill="none" stroke-width="0.1" stroke-linecap="round"/><path d="M 615,510 q -8,-42 17,-53" stroke="black" fill="none" stroke-width="0.1" stroke-linecap="round"/><path d="M 630,510 q -2,-43 11,-60" stroke="black" fill="none" stroke-width="0.1" stroke-linecap="round"/><path d="M 657,510 q -5,-41 15,-55" stroke="black" fill="none" stroke-width="0.1" stroke-linecap="round"/><path d="M 676,510 q -8,-49 11,-53" stroke="black" fill="none" stroke-width="0.1" stroke-linecap="round"/><path d="M 695,510 q -8,-49 16,-60" stroke="black" fill="none" stroke-width="0.1" stroke-linecap="round"/><path d="M 718,510 q -3,-50 19,-58" stroke="black" fill="none" stroke-width="0.1" stroke-linecap="round"/><path d="M 734,510 q -6,-46 10,-53" stroke="black" fill="none" stroke-width="0.1" stroke-linecap="round"/>
  <text x="267mm" y="188mm" text-anchor="end" font-family="Courier New, monospace" font-size="6">
    align | one group/one special | seed 1 | L.Art N19 - culms v0.1 | (c) 2024 - L.A.N19
    </text>
</svg>
    