<svg width="297mm" height="420mm" version="1.1" xmlns="http://www.w3.org/2000/svg">
   <rect x="10mm" y="10mm" width="277mm" height="400mm" stroke="black" fill="transparent" stroke-width="0.1"/>
   <rect x="30mm" y="150mm" width="237mm" height="32mm" stroke="black" fill="transparent" stroke-width="0.2"/>
   <!--<rect x="30mm" y="182mm" width="237mm" height="0mm" stroke="black" fill="transparent" stroke-width="0.2"/-->
            <!-- fuehrende raketenwissenschafter haben unter leitung von professoren der teilschenbeschleunigung
                 definiert das kein mm-Angaben in den Paths funktionieren, sondern schwurbelige einheitsfreie 
                 Angaben, die in SVG und PDF-Export in anderen dimensionen definiert sind.
                 Ja, ok, es gibt bestimmt eine "Ne, ist doch klar"-Erklaerung: Bitte melden!!!
                 -->
  <path d="M 111,510 q -3,-48 16,-54" stroke="black" fill="none" stroke-width="0.1" stroke-linecap="round"/><path d="M 133,510 q -5,-45 13,-53" stroke="black" fill="none" stroke-width="0.1" stroke-linecap="round"/><path d="M 157,510 q -4,-50 17,-55" stroke="black" fill="none" stroke-width="0.1" stroke-linecap="round"/><path d="M 177,510 q -5,-50 17,-54" stroke="black" fill="none" stroke-width="0.1" stroke-linecap="round"/><path d="M 199,510 q -1,-43 17,-56" stroke="black" fill="none" stroke-width="0.1" stroke-linecap="round"/><path d="M 210,510 q -2,-43 13,-59" stroke="black" fill="none" stroke-width="0.1" stroke-linecap="round"/><path d="M 234,510 q -8,-43 13,-56" stroke="black" fill="none" stroke-width="0.1" stroke-linecap="round"/><path d="M 252,510 q -2,-46 16,-60" stroke="black" fill="none" stroke-width="0.1" stroke-linecap="round"/><path d="M 273,510 q -1,-41 17,-60" stroke="black" fill="none" stroke-width="0.1" stroke-linecap="round"/><path d="M 294,510 q -6,-42 14,-59" stroke="black" fill="none" stroke-width="0.1" stroke-linecap="round"/><path d="M 316,510 q -10,-41 18,-60" stroke="black" fill="none" stroke-width="0.1" stroke-linecap="round"/><path d="M 333,510 q -3,-47 16,-55" stroke="black" fill="none" stroke-width="0.1" stroke-linecap="round"/><path d="M 354,510 q -3,-41 18,-56" stroke="black" fill="none" stroke-width="0.1" stroke-linecap="round"/><path d="M 374,510 q -1,-48 16,-54" stroke="black" fill="none" stroke-width="0.1" stroke-linecap="round"/><path d="M 397,510 q -2,-47 13,-54" stroke="black" fill="none" stroke-width="0.1" stroke-linecap="round"/><path d="M 419,510 q -3,-49 16,-60" stroke="black" fill="none" stroke-width="0.1" stroke-linecap="round"/><path d="M 430,510 q -7,-45 13,-59" stroke="black" fill="none" stroke-width="0.1" stroke-linecap="round"/><path d="M 450,510 q -3,-47 10,-58" stroke="black" fill="none" stroke-width="0.1" stroke-linecap="round"/><path d="M 475,510 q -10,-42 14,-57" stroke="black" fill="none" stroke-width="0.1" stroke-linecap="round"/><path d="M 493,510 q -4,-42 11,-51" stroke="black" fill="none" stroke-width="0.1" stroke-linecap="round"/><path d="M 512,510 q 14,-50 -8,-60" stroke="black" fill="none" stroke-width="0.1" stroke-linecap="round"/><path d="M 530,510 q -1,-42 13,-58" stroke="black" fill="none" stroke-width="0.1" stroke-linecap="round"/><path d="M 555,510 q -8,-48 16,-51" stroke="black" fill="none" stroke-width="0.1" stroke-linecap="round"/><path d="M 570,510 q -10,-41 15,-52" stroke="black" fill="none" stroke-width="0.1" stroke-linecap="round"/><path d="M 590,510 q -7,-49 17,-53" stroke="black" fill="none" stroke-width="0.1" stroke-linecap="round"/><path d="M 611,510 q -8,-46 18,-60" stroke="black" fill="none" stroke-width="0.1" stroke-linecap="round"/><path d="M 636,510 q -6,-41 18,-51" stroke="black" fill="none" stroke-width="0.1" stroke-linecap="round"/><path d="M 653,510 q -8,-45 11,-51" stroke="black" fill="none" stroke-width="0.1" stroke-linecap="round"/><path d="M 674,510 q -6,-47 19,-52" stroke="black" fill="none" stroke-width="0.1" stroke-linecap="round"/><path d="M 691,510 q -10,-46 13,-57" stroke="black" fill="none" stroke-width="0.1" stroke-linecap="round"/><path d="M 713,510 q -2,-47 17,-55" stroke="black" fill="none" stroke-width="0.1" stroke-linecap="round"/><path d="M 736,510 q -1,-43 11,-55" stroke="black" fill="none" stroke-width="0.1" stroke-linecap="round"/>
  <text x="267mm" y="188mm" text-anchor="end" font-family="Courier New, monospace" font-size="6">
    align | one group/one special | seed 1 | L.Art N19 - culms v0.1 | (c) 2024 - L.A.N19
    </text>
</svg>
    